<svg xmlns="http://www.w3.org/2000/svg" width="240" height="55" viewBox="0 0 240 55"><defs><style>.a{fill:#900;}.b{fill:#fff;}</style></defs><title>Demand Progress logo</title><path class="a" d="M.209,16.977V15.685a.291.291,0,0,1,.308-.307c1.353,0,7.2,0,8.3.184,1.968.369,4.982.861,6.212.369,2.03-.8,3.506-4.49,6.52-6.951C23.46,7.443,27.4,5.966,29.919,5.044s6.52-2.645,7.565-3.137C38.591,1.353,40.5,0,42.282,0S45.3.984,46.526,1.722s8.612,3.937,9.965,4.737a9.861,9.861,0,0,1,3.014,2.952,7.588,7.588,0,0,1,1.046,3.2s3.137,1.906,3.875,3.444a9.1,9.1,0,0,1,1.23,3.383c0,1.046-.677,3.383-.554,4.736s.8,3.814.8,5.413-.369,3.629-1.23,4.491c-1.231,1.23-2.645,2.029-3.383,3.014-1.169,1.6-2.153,4.736-3.629,7.258A10.463,10.463,0,0,1,53.046,48.9c-1.476.553-3.014.492-3.813,1.168s-1.723,2.768-2.461,3.322c-1.291,1.107-2.46,1.476-4.8,1.6s-5.535-.923-9.534-1.292a45.212,45.212,0,0,1-13.347-3.506c-1.353-.492-5.229-2.706-6.459-3.075-2.153-.615-4.367-.123-5.72-.062-1.784.123-5.29,1.107-5.29,0a8.266,8.266,0,0,1,.615-3.629c.492-.553,5.413-.307,6.459-.8,1.845-.861,3.137-3.444,3.69-5.166.308-1.046,1.845-2.83,1.784-4.06a2.86,2.86,0,0,0-2.46-2.46,40.5,40.5,0,0,0-5.9.307,14.049,14.049,0,0,1-4,0c-.615-.369-.615-1.661-.492-2.153.246-.8,2.276.123,4.429-.43,1.23-.369,4.613,0,5.967-.369,1.414-.369,2.337-1.292,2.46-3.568a6.311,6.311,0,0,0-2.337-5.474c-1.415-1.108-4-1.231-5.721-1.354-.923-.061-4.675-.43-5.72-.553A.526.526,0,0,1,.209,16.977ZM35.024,6.336c-1.23.738-4.121,2.029-5.229,2.829-2.152,1.6-6.089,4.06-6.089,9.411,0,1.476,1.6,3.937,3.26,5.413s5.228,3.814,8.673,4.121a8.421,8.421,0,0,0,8-3.814,11.394,11.394,0,0,0,2.153-6.52,11.608,11.608,0,0,0-1.6-5.6,31.359,31.359,0,0,0-2.584-3.445c-.492-.553-.676-1.6.8-1.107a75.728,75.728,0,0,1,6.951,3.2,1.6,1.6,0,0,1,.553,2.337c-.553,1.107-1.6,3.568-1.907,4.49a6.462,6.462,0,0,0,.739,5.721c1.537,2.214,3.2,2.768,4,1.107.738-1.538,2.03-4.49,2.829-5.72a35.26,35.26,0,0,0,2.153-4.368,3.517,3.517,0,0,0-.246-3.383c-1.6-1.783-4.8-2.768-7.873-4.182-2.891-1.354-5.352-3.137-7.32-3.2C40.806,3.691,36.869,5.29,35.024,6.336ZM38.53,36.6a10.984,10.984,0,0,0-2.707-4.674,17.105,17.105,0,0,0-5.658-3.014,14.059,14.059,0,0,0-6.4-.123A9.723,9.723,0,0,0,17.616,33.4a9.482,9.482,0,0,0,1.846,11.072,14.537,14.537,0,0,0,7.381,3.444c2.706.554,4.613.246,6.274.677s2.091,1.476,6.705,2.46c1.291.246,1.168.985,2.829,1.169,1.107.123,1.661-.923,3.076-4.06,1.6-3.69,3.567-6.889,4-8s.307-2.768-.8-3.321a38.9,38.9,0,0,1-4.859-3.322c-.615-.492-1.6-1.6-2.461-1.292a2.613,2.613,0,0,0-1.722,2.645c.185,2.707,1.538,3.383,3.506,4.859,1.353,1.046,1.23,1.538.738,2.522-.676,1.354-1.6,3.383-2.337,4.491-.677,1.107-1.107.922-2.337.553s-3.137-1.107-3.691-1.23-1.107-1.6-.123-2.03a7.216,7.216,0,0,0,2.829-3.26A11.988,11.988,0,0,0,38.53,36.6Zm19.622-4.674a39.265,39.265,0,0,0-5.167-2.645,48.331,48.331,0,0,1-5.6-2.522c-.676-.431-1.845-.8-2.46,0a3.832,3.832,0,0,0-.738,3.752,8.24,8.24,0,0,0,3.69,2.952c2.338,1.108,3.937,1.6,4.491,2.153a2.365,2.365,0,0,1,.8,3.014c-.676,1.784-1.476,3.814-1.906,4.737S50.34,46.5,52.37,45.7a5.773,5.773,0,0,0,3.321-3.2c.431-.922,2.03-4.8,3.076-6.766C60.12,33.215,59.2,32.477,58.152,31.924Zm4.859-5.413c-.554-.923-3.875-1.722-6.52-2.153a1.811,1.811,0,0,0-2.153,1.107c-.554.923-.738,1.476.369,2.338A16.376,16.376,0,0,0,57.6,29.4c.554.369,1.6.738,2.522,1.353a1.52,1.52,0,0,0,2.4-.8S63.5,27.31,63.011,26.511Zm-4.675-9.227s-1.292,2.338-1.6,2.891c-.369.554-.738,1.292.369,1.784a14.606,14.606,0,0,0,4.429.923c.738,0,1.66.123,1.168-1.6A8.651,8.651,0,0,0,60,17.469C59.443,16.915,59.074,15.993,58.336,17.284Z"/><polygon class="b" points="192.305 44.779 186.769 44.779 186.769 50.069 191.813 50.069 191.813 46.994 196.672 46.994 196.672 53.391 178.957 53.391 178.957 50.069 180.864 50.069 180.864 36.598 178.957 36.598 178.957 33.031 196.672 33.031 196.672 39.182 191.813 39.182 191.813 36.598 186.769 36.598 186.769 41.15 192.305 41.15 192.305 44.779"/><path class="b" d="M83.555,33.031a7.329,7.329,0,0,1,5.229,1.661C90.2,35.8,90.26,38.321,90.26,38.321V39.8a5.061,5.061,0,0,1-2.03,3.629A10.9,10.9,0,0,1,82.387,44.9H80.48v5.106h1.476v3.383H72.914v-3.26h1.6V36.6h-1.6V33.031ZM80.418,36.6v5.413h1.538a2.732,2.732,0,0,0,2.153-.738,2.7,2.7,0,0,0,.8-1.661v-.8a2.487,2.487,0,0,0-.738-1.6,2.148,2.148,0,0,0-1.476-.616Z"/><path class="b" d="M100.717,44.9H99.486v5.167h1.477v3.322H91.921v-3.26h1.6V36.6h-1.6V33.031h11.194a6.827,6.827,0,0,1,4.614,1.661,4.4,4.4,0,0,1,1.476,3.629v1.168s.061,2.768-3.875,3.691a7.312,7.312,0,0,1,1.968,1.046,3.61,3.61,0,0,1,1.538,2.337,16.057,16.057,0,0,1,.123,2.091s0,1.046.861,1.046a.883.883,0,0,0,.861-.984V47.609h1.476v2.645A3.144,3.144,0,0,1,110.8,52.9a3.293,3.293,0,0,1-2.214.738h-1.353a4.607,4.607,0,0,1-3.383-1.353,4.92,4.92,0,0,1-1.231-2.584l-.123-2.706a2.689,2.689,0,0,0-.43-1.354A1.823,1.823,0,0,0,100.717,44.9ZM99.363,36.66v5.351h2.215a2.817,2.817,0,0,0,1.537-.738,2.313,2.313,0,0,0,.8-1.353V38.505s.062-.492-.676-1.23a5.424,5.424,0,0,0-1.231-.615S99.3,36.6,99.363,36.66Z"/><path class="b" d="M166.04,44.9h-1.23v5.167h1.476v3.322h-9.042v-3.26h1.6V36.6h-1.6V33.031h11.195a6.824,6.824,0,0,1,4.613,1.661,4.4,4.4,0,0,1,1.477,3.629v1.168s.061,2.768-3.875,3.691a7.312,7.312,0,0,1,1.968,1.046,3.613,3.613,0,0,1,1.538,2.337,16.057,16.057,0,0,1,.123,2.091s0,1.046.861,1.046a.883.883,0,0,0,.861-.984V47.609h1.476v2.645a3.144,3.144,0,0,1-1.353,2.645,3.293,3.293,0,0,1-2.214.738H172.56a4.608,4.608,0,0,1-3.383-1.353,4.923,4.923,0,0,1-1.23-2.584l-.123-2.706a2.682,2.682,0,0,0-.431-1.354A1.913,1.913,0,0,0,166.04,44.9Zm-1.414-8.242v5.351h2.214a2.818,2.818,0,0,0,1.538-.738,2.315,2.315,0,0,0,.8-1.353V38.505s.062-.492-.676-1.23a5.4,5.4,0,0,0-1.231-.615S164.626,36.6,164.626,36.66Z"/><path class="b" d="M123.6,32.6a9.228,9.228,0,0,1,6.151,2.461,10.157,10.157,0,0,1,3.076,7.073V44.41s0,4.06-2.584,6.643a10.2,10.2,0,0,1-6.643,2.83h-2.091a10.346,10.346,0,0,1-6.643-2.83c-2.584-2.583-2.584-6.643-2.584-6.643V42.134a9.906,9.906,0,0,1,3.076-7.073,9.228,9.228,0,0,1,6.151-2.461Zm-.984,16.854c1.23,0,1.845-1.107,2.338-1.968a9.215,9.215,0,0,0,.861-3.814V42.565a9.208,9.208,0,0,0-.861-4c-.985-1.784-2.276-1.784-2.276-1.784h-.308s-1.292,0-2.276,1.784a8.393,8.393,0,0,0-.861,4v1.107a8.248,8.248,0,0,0,.861,3.814c.492.861,1.107,1.968,2.338,1.968Z"/><path class="b" d="M148.633,35.061a5.322,5.322,0,0,0-4.244-2.4H142.3s-2.4-.185-5.166,2.4a9.338,9.338,0,0,0-3.076,6.766v2.891a9.86,9.86,0,0,0,2.583,6.335A9.026,9.026,0,0,0,142.6,53.76h1.107a5.547,5.547,0,0,0,4-1.969h.431l.676,1.538h5.721V46.01h1.292V43.18H146.3v2.83h1.537a1.4,1.4,0,0,1,0,1.476c-.43.861-.984,1.476-2.891,1.415H144.7a3.368,3.368,0,0,1-2.768-1.723,6,6,0,0,1-.984-3.383v-.984a6.3,6.3,0,0,1,1.046-3.568,3.629,3.629,0,0,1,2.706-1.6H145a3.544,3.544,0,0,1,2.706,1.6,4.171,4.171,0,0,1,.738,2.276h5.106V33.031h-4.183s-.308.923-.554,2.03Z"/><path class="b" d="M211.8,40.166h5.044V33.154h-4.8V35s-.062.738-.492.185a9.828,9.828,0,0,0-2.276-2.03,5.24,5.24,0,0,0-2.891-.738h-1.415a7.112,7.112,0,0,0-4.244,1.907,5.567,5.567,0,0,0-1.907,3.752v1.23A4.819,4.819,0,0,0,200.67,43a13.357,13.357,0,0,0,5.905,2.521c1.846.431,3.383,1.169,3.383,2.338,0,.984-1.23,1.353-2.521,1.353a5.16,5.16,0,0,1-2.522-.615,2.832,2.832,0,0,1-1.477-2.276h-5.1v6.951h4.982V50.992s0-.369.616.246a6.979,6.979,0,0,0,4.859,2.4h2.46a6.875,6.875,0,0,0,4.429-1.723,5.375,5.375,0,0,0,1.907-3.752V47.24a4.481,4.481,0,0,0-1.415-3.076,12.889,12.889,0,0,0-4.736-2.645c-1.661-.615-3.322-1.107-4.06-1.414s-1.6-.8-1.6-1.846a2.031,2.031,0,0,1,2.214-1.722,4.292,4.292,0,0,1,2.707,1.046A3.714,3.714,0,0,1,211.8,40.166Z"/><path class="b" d="M232.779,40.166h5.044V33.154h-4.8V35s-.062.738-.492.185a9.85,9.85,0,0,0-2.276-2.03,5.24,5.24,0,0,0-2.891-.738h-1.415a7.112,7.112,0,0,0-4.244,1.907,5.567,5.567,0,0,0-1.907,3.752v1.23A4.819,4.819,0,0,0,221.645,43a13.357,13.357,0,0,0,5.905,2.521c1.846.431,3.383,1.169,3.383,2.338,0,.984-1.23,1.353-2.522,1.353a5.158,5.158,0,0,1-2.521-.615,2.83,2.83,0,0,1-1.477-2.276h-5.105v6.951h4.982V50.992s0-.369.615.246a6.983,6.983,0,0,0,4.86,2.4h2.46a6.876,6.876,0,0,0,4.429-1.723,5.375,5.375,0,0,0,1.907-3.752V47.24a4.481,4.481,0,0,0-1.415-3.076,12.889,12.889,0,0,0-4.736-2.645c-1.661-.615-3.322-1.107-4.06-1.414s-1.6-.8-1.6-1.846a2.031,2.031,0,0,1,2.214-1.722,4.294,4.294,0,0,1,2.707,1.046A4,4,0,0,1,232.779,40.166Z"/><path class="b" d="M97.211,17.1a11.261,11.261,0,0,1-2.645,6.95c-2.461,3.014-6.7,4.122-9.658,4.122H73.037V23.989H75.19V8H73.037V3.568H85.4a13.061,13.061,0,0,1,9.042,4.059,10.23,10.23,0,0,1,2.768,7.012Zm-7.874-1.538c0-2.46-.307-3.875-1.168-5.1C86.815,8.55,85.77,8,84.724,8H82.141V23.927h2.583a3.7,3.7,0,0,0,3.2-2.029,9.251,9.251,0,0,0,1.415-5.536Z"/><path class="b" d="M239.791,17.1a11.255,11.255,0,0,1-2.645,6.95c-2.46,3.014-6.7,4.122-9.657,4.122H215.617V23.989h2.153V8h-2.153V3.568h12.364a13.061,13.061,0,0,1,9.042,4.059,10.23,10.23,0,0,1,2.768,7.012V17.1Zm-7.873-1.538c0-2.46-.308-3.875-1.169-5.1C229.4,8.55,228.35,8,227.3,8h-2.583V23.927H227.3a3.7,3.7,0,0,0,3.2-2.029,9.258,9.258,0,0,0,1.415-5.536Z"/><polygon class="b" points="114.864 17.653 108.282 17.653 108.282 23.927 114.372 23.927 114.372 20.606 120.031 20.606 120.031 28.172 99.056 28.172 99.056 23.927 101.086 23.927 101.086 7.996 99.056 7.996 99.056 3.568 120.031 3.568 120.031 11.072 114.372 11.072 114.372 7.996 108.282 7.996 108.282 13.225 114.864 13.225 114.864 17.653"/><polyline class="b" points="139.222 16.915 139.591 16.915 143.097 3.568 156.322 3.568 156.322 7.996 154.476 7.996 154.476 23.989 156.199 23.989 156.199 28.172 145.557 28.172 145.557 23.989 147.649 23.989 147.649 10.088 147.034 10.088 141.99 28.172 134.916 28.172 130.241 10.088 129.626 10.088 129.626 23.927 131.718 23.927 131.718 28.172 122.368 28.172 122.368 23.927 124.213 23.927 124.213 7.996 122.368 7.996 122.368 3.568 135.593 3.568 139.099 16.915 139.468 16.915"/><path class="b" d="M168.685,17.407h5.106l-2.4-8.057h-.369Zm19.437,6.52V7.935h-1.845V3.568h9.965l8.673,12.978h.369V8h-2.338V3.568h10.273V8h-2.338V28.172h-7.258l-9.288-13.594H193.9v9.411h2.645v4.183H172.437V23.989h3.568l-1.169-2.83h-7.2l-1.169,2.83h2.706v4.183H158.1V23.989h2.584L165.61,8.058h-1.661V3.568h13.532l6.336,20.359Z"/></svg>
