<svg xmlns="http://www.w3.org/2000/svg" xmlns:xlink="http://www.w3.org/1999/xlink" width="30" height="30" viewBox="0 0 30 30"><defs><style>.a,.b{fill:none;}.a{clip-rule:evenodd;}.c{clip-path:url(#a);}.d{clip-path:url(#b);}.e{fill:#fff;}</style><clipPath id="a"><path class="a" d="M21.992,21.068c0,.423-.209.873-.629.873H17.829V16.65h1.8l.273-2.268h-2.07V13.029c0-.605.163-.914,1.033-.914H20.1V10.138c-.378-.026-.965-.083-1.733-.083a2.609,2.609,0,0,0-2.808,2.766v1.561H13.666V16.65h1.892v5.291H9c-.424,0-.636-.45-.636-.873V8.725c0-.424.212-.767.636-.767H21.363c.42,0,.629.343.629.767ZM15,.652A14.348,14.348,0,1,0,29.367,15,14.36,14.36,0,0,0,15,.652Z"/></clipPath><clipPath id="b"><rect class="b" x="-555.367" y="-602.348" width="1002" height="653"/></clipPath></defs><title>Facebook logo</title><g class="c"><g class="d"><rect class="e" x="-4.367" y="-4.348" width="38.735" height="38.696"/></g></g></svg>
