<svg xmlns="http://www.w3.org/2000/svg" xmlns:xlink="http://www.w3.org/1999/xlink" width="30" height="30" viewBox="0 0 30 30"><defs><style>.a,.b{fill:none;}.a{clip-rule:evenodd;}.c{clip-path:url(#a);}.d{clip-path:url(#b);}.e{fill:#fff;}</style><clipPath id="a"><path class="a" d="M20.463,11.96c0,.128.007.257.007.385A8.325,8.325,0,0,1,12.2,20.818,8.1,8.1,0,0,1,7.74,19.48a5.857,5.857,0,0,0,.692.042,5.757,5.757,0,0,0,3.614-1.274,2.921,2.921,0,0,1-2.717-2.067,2.9,2.9,0,0,0,.545.053,3.07,3.07,0,0,0,.8-.106,2.936,2.936,0,0,1-2.3-2.921v-.034a2.731,2.731,0,0,0,1.29.37,3.033,3.033,0,0,1-.923-3.976,8.181,8.181,0,0,0,5.991,3.111A2.882,2.882,0,0,1,14.648,12a2.943,2.943,0,0,1,2.906-2.978,2.871,2.871,0,0,1,2.122.937,5.687,5.687,0,0,0,1.847-.721,2.957,2.957,0,0,1-1.28,1.647,5.582,5.582,0,0,0,1.669-.468A5.944,5.944,0,0,1,20.463,11.96ZM15,.652A14.348,14.348,0,1,0,29.367,15,14.36,14.36,0,0,0,15,.652Z"/></clipPath><clipPath id="b"><rect class="b" x="-590.633" y="-603.652" width="1002" height="653"/></clipPath></defs><title>Twitter logo</title><g class="c"><g class="d"><rect class="e" x="-4.367" y="-4.348" width="38.735" height="38.696"/></g></g></svg>
